<?xml version="1.0" standalone="no"?>
<!DOCTYPE svg PUBLIC "-//W3C//DTD SVG 20010904//EN"
 "http://www.w3.org/TR/2001/REC-SVG-20010904/DTD/svg10.dtd">
<svg version="1.0" xmlns="http://www.w3.org/2000/svg"
 width="312.000000pt" height="312.000000pt" viewBox="0 0 312.000000 312.000000"
 preserveAspectRatio="xMidYMid meet">
<metadata>
Created by potrace 1.14, written by Peter Selinger 2001-2017
</metadata>
<g transform="translate(0.000000,312.000000) scale(0.100000,-0.100000)"
fill="#000000" stroke="none">
<path d="M842 2594 c-30 -8 -77 -30 -106 -50 -69 -49 -104 -96 -191 -259 -15
-27 -33 -57 -41 -66 -8 -8 -14 -18 -14 -21 0 -4 -19 -39 -43 -80 -24 -40 -55
-93 -69 -118 -14 -25 -68 -119 -120 -210 -53 -91 -105 -181 -116 -200 -11 -19
-40 -71 -66 -115 -64 -111 -79 -161 -72 -236 11 -105 32 -135 259 -362 115
-115 212 -205 216 -201 4 5 63 105 130 222 l123 214 -63 66 c-35 36 -72 73
-83 82 -30 27 -22 63 39 167 32 54 67 114 77 133 86 152 297 515 324 558 19
29 45 56 57 61 12 5 140 8 285 8 276 1 278 0 247 -44 -13 -19 -57 -94 -153
-263 -14 -25 -34 -58 -44 -75 -10 -16 -18 -32 -18 -35 0 -4 548 -5 572 -1 4 0
15 18 25 39 9 20 21 42 26 47 7 9 235 403 309 534 35 62 81 142 110 189 l20
32 -784 -1 c-644 0 -792 -3 -836 -15z"/>
<path d="M2634 2417 c-6 -12 -42 -76 -80 -142 -39 -66 -73 -127 -77 -135 -4
-8 -25 -44 -46 -79 l-39 -65 79 -80 c44 -44 82 -90 85 -102 6 -21 -2 -37 -78
-169 -42 -73 -106 -185 -129 -225 -12 -19 -77 -133 -147 -253 -69 -120 -135
-223 -146 -230 -15 -8 -102 -12 -293 -13 -150 0 -273 1 -273 2 0 2 20 38 45
80 25 41 45 77 45 79 0 2 33 60 74 129 41 69 72 127 68 127 -4 1 -132 2 -286
3 l-278 1 -17 -25 c-23 -36 -34 -55 -89 -150 -27 -47 -58 -102 -70 -122 -12
-21 -30 -53 -41 -70 -10 -18 -51 -89 -91 -158 -40 -69 -86 -150 -103 -180 -17
-30 -41 -72 -54 -92 -13 -21 -23 -40 -23 -43 0 -3 361 -4 803 -3 l802 3 67 33
c66 32 158 118 158 148 0 8 5 14 10 14 6 0 10 4 10 9 0 8 64 123 100 181 5 8
26 44 46 80 21 36 126 219 235 407 108 188 203 358 209 379 19 56 8 179 -20
229 -20 35 -426 455 -440 455 -3 0 -10 -10 -16 -23z"/>
</g>
</svg>
